<mxfile host="65bd71144e">
    <diagram id="d1753963900825" name="UML-ClassDiagram">
        <mxGraphModel dx="1339" dy="565" grid="1" gridSize="10" guides="1" tooltips="1" connect="1" arrows="1" fold="1" page="1" pageScale="1" pageWidth="850" pageHeight="1100" math="0" shadow="0">
            <root>
                <mxCell id="0"/>
                <mxCell id="1" parent="0"/>
                <mxCell id="2" style="umlClass;html=1;rounded=1;strokeColor=#888888;fillColor=#AEC6CF;" parent="1" vertex="1">
                    <mxGeometry x="60" y="60" width="240" height="170" as="geometry"/>
                </mxCell>
                <mxCell id="3" value="&lt;b&gt;Pump&lt;/b&gt;" style="text;html=1;verticalAlign=middle;align=center;fillColor=#AEC6CF;strokeColor=#888888;" parent="2" vertex="1">
                    <mxGeometry width="240" height="30" as="geometry"/>
                </mxCell>
                <mxCell id="4" value="ident: String" style="text;html=1;verticalAlign=middle;align=left;fillColor=#E8DAEF;strokeColor=#888888;" parent="2" vertex="1">
                    <mxGeometry y="30" width="240" height="20" as="geometry"/>
                </mxCell>
                <mxCell id="5" value="isStarted: Boolean" style="text;html=1;verticalAlign=middle;align=left;fillColor=#E8DAEF;strokeColor=#888888;" parent="2" vertex="1">
                    <mxGeometry y="50" width="240" height="20" as="geometry"/>
                </mxCell>
                <mxCell id="6" value="temperature: Real" style="text;html=1;verticalAlign=middle;align=left;fillColor=#E8DAEF;strokeColor=#888888;" parent="2" vertex="1">
                    <mxGeometry y="70" width="240" height="20" as="geometry"/>
                </mxCell>
                <mxCell id="7" value="R1: Requirement" style="text;html=1;verticalAlign=middle;align=left;fillColor=#FFDAC1;strokeColor=#888888;" parent="2" vertex="1">
                    <mxGeometry y="90" width="240" height="20" as="geometry"/>
                </mxCell>
                <mxCell id="8" value="R2: Requirement" style="text;html=1;verticalAlign=middle;align=left;fillColor=#FFDAC1;strokeColor=#888888;" parent="2" vertex="1">
                    <mxGeometry y="110" width="240" height="20" as="geometry"/>
                </mxCell>
                <mxCell id="9" value="R3: Requirement" style="text;html=1;verticalAlign=middle;align=left;fillColor=#FFDAC1;strokeColor=#888888;" parent="2" vertex="1">
                    <mxGeometry y="130" width="240" height="20" as="geometry"/>
                </mxCell>
                <mxCell id="10" value="R4: Requirement" style="text;html=1;verticalAlign=middle;align=left;fillColor=#FFDAC1;strokeColor=#888888;" parent="2" vertex="1">
                    <mxGeometry y="150" width="240" height="20" as="geometry"/>
                </mxCell>
                <mxCell id="11" style="umlClass;html=1;rounded=1;strokeColor=#888888;fillColor=#AEC6CF;" parent="1" vertex="1">
                    <mxGeometry x="380" y="60" width="240" height="70" as="geometry"/>
                </mxCell>
                <mxCell id="12" value="&lt;b&gt;System&lt;/b&gt;" style="text;html=1;verticalAlign=middle;align=center;fillColor=#AEC6CF;strokeColor=#888888;" parent="11" vertex="1">
                    <mxGeometry width="240" height="30" as="geometry"/>
                </mxCell>
                <mxCell id="13" value="pumps: Pump{}" style="text;html=1;verticalAlign=middle;align=left;fillColor=#E8DAEF;strokeColor=#888888;" parent="11" vertex="1">
                    <mxGeometry y="30" width="240" height="20" as="geometry"/>
                </mxCell>
                <mxCell id="14" value="inOperation: Boolean" style="text;html=1;verticalAlign=middle;align=left;fillColor=#E8DAEF;strokeColor=#888888;" parent="11" vertex="1">
                    <mxGeometry y="50" width="240" height="20" as="geometry"/>
                </mxCell>
                <mxCell id="15" value="&lt;i&gt;system: System&lt;/i&gt;" style="shape=ellipse;html=1;rounded=1;strokeColor=#888888;fillColor=#FFF5BA;" parent="1" vertex="1">
                    <mxGeometry x="470" y="340" width="120" height="30" as="geometry"/>
                </mxCell>
                <mxCell id="16" value="&lt;i&gt;(ident: Pump&lt;/i&gt;" style="shape=ellipse;html=1;rounded=1;strokeColor=#888888;fillColor=#FFF5BA;" parent="1" vertex="1">
                    <mxGeometry x="60" y="350" width="120" height="30" as="geometry"/>
                </mxCell>
                <mxCell id="17" value="&lt;i&gt;(ident: Pump&lt;/i&gt;" style="shape=ellipse;html=1;rounded=1;strokeColor=#888888;fillColor=#FFF5BA;" parent="1" vertex="1">
                    <mxGeometry x="60" y="420" width="120" height="30" as="geometry"/>
                </mxCell>
                <mxCell id="18" value="&lt;i&gt;(ident: Pump&lt;/i&gt;" style="shape=ellipse;html=1;rounded=1;strokeColor=#888888;fillColor=#FFF5BA;" parent="1" vertex="1">
                    <mxGeometry x="260" y="420" width="120" height="30" as="geometry"/>
                </mxCell>
                <mxCell id="19" style="edgeStyle=orthogonalEdgeStyle;endArrow=diamond;endFill=1;strokeColor=#888888;" parent="1" source="2" edge="1">
                    <mxGeometry relative="1" as="geometry"/>
                </mxCell>
                <mxCell id="20" style="edgeStyle=orthogonalEdgeStyle;endArrow=diamond;endFill=1;strokeColor=#888888;" parent="1" source="2" edge="1">
                    <mxGeometry relative="1" as="geometry"/>
                </mxCell>
                <mxCell id="21" style="edgeStyle=orthogonalEdgeStyle;endArrow=diamond;endFill=1;strokeColor=#888888;" parent="1" source="2" edge="1">
                    <mxGeometry relative="1" as="geometry"/>
                </mxCell>
                <mxCell id="22" style="edgeStyle=orthogonalEdgeStyle;endArrow=diamond;endFill=1;strokeColor=#888888;" parent="1" source="2" edge="1">
                    <mxGeometry relative="1" as="geometry"/>
                </mxCell>
                <mxCell id="23" style="edgeStyle=orthogonalEdgeStyle;endArrow=diamond;endFill=1;strokeColor=#888888;" parent="1" source="2" edge="1">
                    <mxGeometry relative="1" as="geometry"/>
                </mxCell>
                <mxCell id="24" style="edgeStyle=orthogonalEdgeStyle;endArrow=diamond;endFill=1;strokeColor=#888888;" parent="1" source="2" edge="1">
                    <mxGeometry relative="1" as="geometry"/>
                </mxCell>
                <mxCell id="25" style="edgeStyle=orthogonalEdgeStyle;endArrow=diamond;endFill=1;strokeColor=#888888;" parent="1" source="2" edge="1">
                    <mxGeometry relative="1" as="geometry"/>
                </mxCell>
                <mxCell id="26" style="edgeStyle=orthogonalEdgeStyle;endArrow=diamond;endFill=1;strokeColor=#888888;" parent="1" source="11" edge="1">
                    <mxGeometry relative="1" as="geometry"/>
                </mxCell>
                <mxCell id="27" style="edgeStyle=orthogonalEdgeStyle;endArrow=diamond;endFill=1;strokeColor=#888888;" parent="1" source="11" edge="1">
                    <mxGeometry relative="1" as="geometry"/>
                </mxCell>
                <mxCell id="28" style="edgeStyle=orthogonalEdgeStyle;endArrow=open;dashed=1;strokeColor=#888888;" parent="1" source="15" target="11" edge="1">
                    <mxGeometry relative="1" as="geometry"/>
                </mxCell>
                <mxCell id="29" style="edgeStyle=orthogonalEdgeStyle;endArrow=open;dashed=1;strokeColor=#888888;" parent="1" source="18" target="2" edge="1">
                    <mxGeometry relative="1" as="geometry"/>
                </mxCell>
                <mxCell id="30" style="edgeStyle=orthogonalEdgeStyle;endArrow=open;dashed=1;strokeColor=#888888;" parent="1" source="18" target="2" edge="1">
                    <mxGeometry relative="1" as="geometry"/>
                </mxCell>
                <mxCell id="31" style="edgeStyle=orthogonalEdgeStyle;endArrow=open;dashed=1;strokeColor=#888888;" parent="1" source="18" target="2" edge="1">
                    <mxGeometry relative="1" as="geometry"/>
                </mxCell>
            </root>
        </mxGraphModel>
    </diagram>
</mxfile>